<svg width="27" height="25" viewBox="0 0 27 25" fill="#EC1C24" xmlns="http://www.w3.org/2000/svg">
<path d="M13.4887 0.16089C6.48506 0.158058 0.8125 5.82779 0.8125 12.8257C0.8125 18.3595 4.36103 23.0635 9.30293 24.7911C9.96846 24.9582 9.8665 24.4852 9.8665 24.1624V21.9675C6.02344 22.4178 5.86768 19.8747 5.60996 19.4499C5.08887 18.5606 3.85693 18.334 4.2251 17.9092C5.10019 17.459 5.99228 18.0225 7.02598 19.549C7.77363 20.6563 9.23213 20.4694 9.97129 20.2853C10.1327 19.6198 10.4782 19.0251 10.954 18.5634C6.97217 17.8498 5.3126 15.4199 5.3126 12.5312C5.3126 11.1294 5.77422 9.84078 6.68047 8.80142C6.10273 7.08804 6.73428 5.62105 6.81924 5.40298C8.46465 5.25572 10.1752 6.58111 10.3083 6.6859C11.2429 6.43384 12.3105 6.30074 13.5057 6.30074C14.7064 6.30074 15.777 6.43951 16.72 6.69439C17.04 6.45084 18.626 5.31236 20.1553 5.45113C20.2374 5.6692 20.8548 7.1022 20.311 8.79293C21.2286 9.83512 21.6959 11.135 21.6959 12.5397C21.6959 15.434 20.025 17.8668 16.0318 18.5691C16.3739 18.9055 16.6454 19.3066 16.8307 19.7491C17.016 20.1916 17.1112 20.6666 17.1108 21.1463V24.3323C17.1335 24.5872 17.1108 24.8392 17.5356 24.8392C22.5512 23.1485 26.162 18.4105 26.162 12.8286C26.162 5.82779 20.4866 0.16089 13.4887 0.16089Z" fill="white"/>
</svg>
