<svg width="62" height="64" viewBox="0 0 62 64" fill="none" xmlns="http://www.w3.org/2000/svg">
<path d="M61.7145 29.29L60.7445 28.32C60.2751 28.8483 59.6991 29.2711 59.0545 29.5607C58.4098 29.8503 57.7111 30 57.0045 30C56.2978 30 55.5991 29.8503 54.9545 29.5607C54.3098 29.2711 53.7338 28.8483 53.2645 28.32L52.2945 29.29C52.1102 29.4807 52.0064 29.7349 52.0045 30V40C52.0052 40.265 52.1109 40.5189 52.2982 40.7062C52.4856 40.8936 52.7395 40.9992 53.0045 41H61.0045C61.2694 40.9992 61.5233 40.8936 61.7107 40.7062C61.8981 40.5189 62.0037 40.265 62.0045 40V30C62.0025 29.7349 61.8987 29.4807 61.7145 29.29Z" fill="#358B39"/>
<path d="M45.0045 22.88L30.2645 29.72C29.87 29.9044 29.4399 30 29.0045 30C28.569 30 28.1389 29.9044 27.7445 29.72L13.0045 22.88V27.09L29.0045 34.55L45.0045 27.08V22.88Z" fill="#358B39"/>
<path d="M28.5845 36.56L13.0045 29.29V33C13.0059 33.1908 13.0611 33.3774 13.1637 33.5383C13.2663 33.6993 13.4121 33.8281 13.5845 33.91L28.5845 40.91C28.7165 40.9694 28.8597 41 29.0045 41C29.1492 41 29.2924 40.9694 29.4245 40.91L44.4245 33.91C44.5968 33.8281 44.7426 33.6993 44.8452 33.5383C44.9478 33.3774 45.003 33.1908 45.0045 33V29.29L29.4245 36.56C29.2942 36.6257 29.1504 36.66 29.0045 36.66C28.8586 36.66 28.7147 36.6257 28.5845 36.56Z" fill="#358B39"/>
<path d="M29.0045 28C29.1492 28.0001 29.2924 27.9694 29.4245 27.91L56.0045 15.57V20.1C56.6645 19.9667 57.3444 19.9667 58.0045 20.1V14C58.0033 13.7351 57.8976 13.4815 57.7103 13.2942C57.523 13.1069 57.2693 13.0012 57.0045 13H29.0045C28.7392 13 28.4849 12.8947 28.2973 12.7071C28.1098 12.5196 28.0045 12.2652 28.0045 12C28.0045 11.7348 28.1098 11.4804 28.2973 11.2929C28.4849 11.1054 28.7392 11 29.0045 11H52.9244L29.4245 0.0900087C29.2924 0.0306765 29.1492 0 29.0045 0C28.8597 0 28.7165 0.0306765 28.5845 0.0900087L0.584451 13.09C0.411158 13.1707 0.264513 13.2992 0.161761 13.4604C0.0590102 13.6216 0.00442505 13.8088 0.00442505 14C0.00442505 14.1912 0.0590102 14.3784 0.161761 14.5396C0.264513 14.7008 0.411158 14.8293 0.584451 14.91L28.5845 27.91C28.7165 27.9694 28.8597 28.0001 29.0045 28Z" fill="#358B39"/>
<path d="M57.0045 28C58.6613 28 60.0045 26.6569 60.0045 25C60.0045 23.3431 58.6613 22 57.0045 22C55.3476 22 54.0045 23.3431 54.0045 25C54.0045 26.6569 55.3476 28 57.0045 28Z" fill="#358B39"/>
<path d="M47.0044 53H44.0244C44.2344 57.49 45.7944 60.99 48.0044 61.8V54C48.0037 53.735 47.898 53.4811 47.7107 53.2938C47.5233 53.1064 47.2694 53.0008 47.0044 53Z" fill="#358B39"/>
<path d="M49.0044 42C48.9576 41.9984 48.9106 42.0017 48.8644 42.01L48.3744 42.08C48.3334 42.0852 48.2931 42.0953 48.2544 42.11C45.9144 42.75 44.2344 46.34 44.0244 51H47.0044C47.7994 51.0023 48.5611 51.3191 49.1232 51.8812C49.6853 52.4433 50.0021 53.205 50.0044 54V61.81C52.3444 60.94 54.0044 57.01 54.0044 52C54.0044 46.3 51.8544 42 49.0044 42Z" fill="#358B39"/>
<path d="M9.14446 42.01C9.09828 42.0017 9.05134 41.9984 9.00446 42C6.15446 42 4.00446 46.3 4.00446 52C4.00446 57.7 6.15446 62 9.00446 62C9.05134 62.0017 9.09828 61.9983 9.14446 61.99L22.0045 60.06V45C22.0047 44.6487 22.0518 44.2989 22.1445 43.96L9.63446 42.08L9.14446 42.01Z" fill="#358B39"/>
<path d="M44.4044 42.68L35.8644 43.96C35.9571 44.2989 36.0042 44.6487 36.0044 45V60.06L44.3944 61.32C42.8844 59.17 42.0044 55.89 42.0044 52C42.0044 48.1 42.8844 44.82 44.4044 42.68Z" fill="#358B39"/>
<path d="M32.0045 43H26.0045C25.4742 43.0006 24.9659 43.2115 24.5909 43.5865C24.216 43.9614 24.0051 44.4698 24.0045 45V63C24.0045 63.1705 24.048 63.3381 24.131 63.487C24.214 63.6359 24.3337 63.7611 24.4787 63.8507C24.6237 63.9403 24.7892 63.9914 24.9595 63.9991C25.1298 64.0067 25.2993 63.9708 25.4517 63.8945L29.0045 62.1182L32.5572 63.8945C32.7097 63.9708 32.8791 64.0067 33.0494 63.9991C33.2197 63.9914 33.3852 63.9403 33.5302 63.8507C33.6752 63.7611 33.7949 63.6359 33.8779 63.487C33.9609 63.3381 34.0045 63.1705 34.0045 63V45C34.0038 44.4698 33.7929 43.9614 33.418 43.5865C33.0431 43.2115 32.5347 43.0006 32.0045 43Z" fill="#358B39"/>
</svg>
