<svg width="65" height="64" viewBox="0 0 65 64" fill="none" xmlns="http://www.w3.org/2000/svg">
<path fill-rule="evenodd" clip-rule="evenodd" d="M27.5076 35.2788C27.5498 36.0474 27.7656 36.7696 28.1164 37.4072L25.5 38.2792V44C25.5 44.5524 25.9478 45 26.5 45C27.0522 45 27.5 44.5524 27.5 44V39.7208L29.55 39.0374C30.377 39.6426 31.3968 40 32.5 40C33.6032 40 34.623 39.6426 35.45 39.0374L37.5 39.7208V44C37.5 44.5524 37.9478 45 38.5 45C39.0524 45 39.5 44.5524 39.5 44V38.2792L36.8836 37.407C37.2344 36.7696 37.4502 36.0474 37.4924 35.2788L39.6436 35.8166L40.5194 40.1962C40.6278 40.7376 41.1546 41.0888 41.6962 40.9806C42.2376 40.8722 42.5888 40.3454 42.4806 39.8038L41.3564 34.1834L37.5 33.2192V33C37.5 32.6576 37.4656 32.3232 37.4 32H40.5V26C40.5 25.4478 40.0522 25 39.5 25C38.9478 25 38.5 25.4478 38.5 26V30H36.5004C36.095 29.4602 35.5828 29.0052 34.9952 28.6662C35.314 28.1896 35.5 27.6164 35.5 27C35.5 25.3432 34.1568 24 32.5 24C30.8432 24 29.5 25.3432 29.5 27C29.5 27.6164 29.686 28.1896 30.0048 28.6662C29.4172 29.0052 28.905 29.4602 28.4996 30H26.5V26C26.5 25.4478 26.0522 25 25.5 25C24.9478 25 24.5 25.4478 24.5 26V32H27.6C27.5344 32.3232 27.5 32.6576 27.5 33V33.2192L23.6436 34.1834L22.5194 39.8038C22.4112 40.3454 22.7624 40.8722 23.3038 40.9806C23.8454 41.0888 24.3722 40.7376 24.4806 40.1962L25.3564 35.8166L27.5076 35.2788ZM35.5 35V34.0228C35.4996 34.0082 35.4996 33.9934 35.5 33.9788V33C35.5 31.3432 34.1568 30 32.5 30C30.8432 30 29.5 31.3432 29.5 33V33.9786C29.5004 33.9934 29.5004 34.0082 29.5 34.0228V35C29.5 36.6568 30.8432 38 32.5 38C34.1568 38 35.5 36.6568 35.5 35ZM32.5 28C33.0522 28 33.5 27.5522 33.5 27C33.5 26.4478 33.0522 26 32.5 26C31.9478 26 31.5 26.4478 31.5 27C31.5 27.5522 31.9478 28 32.5 28Z" fill="#358B39"/>
<path fill-rule="evenodd" clip-rule="evenodd" d="M46.5 46H48.5C50.7092 46 52.5 47.7908 52.5 50V56C52.5 58.2092 50.7092 60 48.5 60H16.5C14.2909 60 12.5 58.2092 12.5 56V50C12.5 47.7908 14.2909 46 16.5 46H18.5V34H10.5V35C10.5 35.5522 10.0523 36 9.5 36H5.5C4.94772 36 4.5 35.5522 4.5 35V31C4.5 30.4478 4.94772 30 5.5 30H9.5C10.0523 30 10.5 30.4478 10.5 31V32H18.5V26C18.5 24.939 18.7065 23.9264 19.0815 23H12.5V10H11.5C10.9477 10 10.5 9.55228 10.5 9V5C10.5 4.44772 10.9477 4 11.5 4H15.5C16.0523 4 16.5 4.44772 16.5 5V9C16.5 9.55228 16.0523 10 15.5 10H14.5V21H20.2546C21.7208 19.1711 23.9736 18 26.5 18H31.5V10H30.5C29.9478 10 29.5 9.55228 29.5 9V5C29.5 4.44772 29.9478 4 30.5 4H34.5C35.0522 4 35.5 4.44772 35.5 5V9C35.5 9.55228 35.0522 10 34.5 10H33.5V18H38.5C41.0264 18 43.2792 19.1711 44.7454 21H50.5V10H49.5C48.9478 10 48.5 9.55228 48.5 9V5C48.5 4.44772 48.9478 4 49.5 4H53.5C54.0522 4 54.5 4.44772 54.5 5V9C54.5 9.55228 54.0522 10 53.5 10H52.5V23H45.9184C46.2934 23.9264 46.5 24.939 46.5 26V32H54.5V31C54.5 30.4478 54.9478 30 55.5 30H59.5C60.0522 30 60.5 30.4478 60.5 31V35C60.5 35.5522 60.0522 36 59.5 36H55.5C54.9478 36 54.5 35.5522 54.5 35V34H46.5V46ZM48.5 48C49.6046 48 50.5 48.8954 50.5 50V56C50.5 57.1046 49.6046 58 48.5 58H16.5C15.3954 58 14.5 57.1046 14.5 56V50C14.5 48.8954 15.3954 48 16.5 48H48.5ZM8.5 34V32H6.5V34H8.5ZM44.5 46H20.5V26C20.5 22.6862 23.1862 20 26.5 20H38.5C41.8138 20 44.5 22.6862 44.5 26V46ZM56.5 32V34H58.5V32H56.5ZM31.5 6V8H33.5V6H31.5ZM50.5 8V6H52.5V8H50.5ZM12.5 6V8H14.5V6H12.5Z" fill="#358B39"/>
</svg>
